# xmcd
#
# Track frame offsets: 
#        150
#        17608
#        36231
#        47048
#        64599
#        82392
#        93568
#        105373
#        129063
#        145938
#        159994
#        171880
#        186059
#        206897
#        219178
#        228875
#        240667
#        253907
#
# Disc length: 3699 seconds
#
# Revision: 0
# Processed by: cddbd v1.5.2PL0 Copyright (c) Steve Scherf et al.
# Submitted via: ExactAudioCopy v0.99pb5
#
DISCID=f10e7112
DTITLE=Various Artist - Qu¨¦bec
DYEAR=1900
DGENRE=Country
TTITLE0=Ya sa pichou
TTITLE1=Le p'tit bonheur et Petit Pierre
TTITLE2=Tout l'monde est malheureux
TTITLE3=Reel du Pendu
TTITLE4=Le frigidaire
TTITLE5=Qu¨¦bec mon pays
TTITLE6=Plein gaz
TTITLE7=Lindberg
TTITLE8=Rester debout
TTITLE9=Tip Top Reel
TTITLE10=Moi mes souliers
TTITLE11=Les gens de mon pays
TTITLE12=L'harmonica
TTITLE13=Le Canada
TTITLE14=Mon pays
TTITLE15=Dans mon char
TTITLE16=Demain matin, Montr¨¦al m'attend
TTITLE17=La complainte du phoque en Alaska
EXTD=
EXTT0=
EXTT1=
EXTT2=
EXTT3=
EXTT4=
EXTT5=
EXTT6=
EXTT7=
EXTT8=
EXTT9=
EXTT10=
EXTT11=
EXTT12=
EXTT13=
EXTT14=
EXTT15=
EXTT16=
EXTT17=
PLAYORDER=
